<?xml version="1.0" encoding="UTF-8" standalone="no"?>
<!-- Created with Inkscape (http://www.inkscape.org/) -->

<svg
   width="380.36792"
   height="375.46484"
   viewBox="0 0 380.36792 375.46484"
   version="1.1"
   id="svg1"
   inkscape:version="1.4 (86a8ad7, 2024-10-11)"
   sodipodi:docname="favicon.svg"
   xmlns:inkscape="http://www.inkscape.org/namespaces/inkscape"
   xmlns:sodipodi="http://sodipodi.sourceforge.net/DTD/sodipodi-0.dtd"
   xmlns="http://www.w3.org/2000/svg"
   xmlns:svg="http://www.w3.org/2000/svg">
  <sodipodi:namedview
     id="namedview1"
     pagecolor="#ffffff"
     bordercolor="#000000"
     borderopacity="0.25"
     inkscape:showpageshadow="2"
     inkscape:pageopacity="0.0"
     inkscape:pagecheckerboard="true"
     inkscape:deskcolor="#d1d1d1"
     inkscape:document-units="mm"
     inkscape:zoom="1.9069786"
     inkscape:cx="114.57916"
     inkscape:cy="158.62789"
     inkscape:window-width="2560"
     inkscape:window-height="1369"
     inkscape:window-x="-8"
     inkscape:window-y="-8"
     inkscape:window-maximized="1"
     inkscape:current-layer="layer1" />
  <defs
     id="defs1" />
  <g
     inkscape:label="Calque 1"
     inkscape:groupmode="layer"
     id="layer1"
     transform="translate(-129.81605,-132.26758)">
    <path
       id="rect2"
       style="opacity:1;fill:#30c38b;fill-opacity:1;stroke:none;stroke-width:8;stroke-linecap:round;stroke-opacity:0.274648"
       inkscape:transform-center-x="3.8146973e-06"
       inkscape:transform-center-y="-93.865761"
       d="m 265.59375,132.26758 c -5.30171,0 -9.56836,14.90614 -9.56836,33.42187 v 43.50196 l -37.67383,-21.75 c -11.02412,-6.36478 -21.57904,-10.12978 -27.96094,-10.36914 -2.90086,-0.10881 -4.93918,0.51049 -5.76757,1.94531 L 130.2168,273.25 c -2.65086,4.59142 8.12506,15.74213 24.16015,25 l 37.67188,21.75 -37.67188,21.75 c -16.03509,9.25787 -26.81101,20.40858 -24.16015,25 l 54.40625,94.23242 c 2.65085,4.59142 17.69342,0.83404 33.72851,-8.42383 l 37.67383,-21.75 v 43.50196 c 0,18.51573 4.26665,33.42187 9.56836,33.42187 h 108.8125 c 5.30171,0 9.56836,-14.90614 9.56836,-33.42187 v -43.50196 l 37.67383,21.75 c 16.03509,9.25787 31.07766,13.01525 33.72851,8.42383 L 509.7832,366.75 c 2.65086,-4.59141 -8.12506,-15.74214 -24.16015,-25 L 447.95117,320 485.62305,298.25 c 16.03509,-9.25786 26.81101,-20.40858 24.16015,-25 l -54.40625,-94.23242 c -0.82839,-1.43482 -2.86673,-2.05412 -5.76757,-1.94531 -6.3819,0.23935 -16.93682,4.00436 -27.96094,10.36914 l -37.67383,21.75 v -43.50196 c 0,-18.51573 -4.26665,-33.42187 -9.56836,-33.42187 z M 320,246.58594 a 73.414566,73.414566 45 0 1 10.64453,0.83789 73.414566,73.414566 0 0 1 3.51758,0.70898 73.414566,73.414566 45 0 1 6.91211,1.66016 73.414566,73.414566 0 0 1 3.97656,1.36523 73.414566,73.414566 45 0 1 6.07227,2.51563 73.414566,73.414566 0 0 1 3.875,1.93555 73.414566,73.414566 45 0 1 5.64062,3.45703 73.414566,73.414566 0 0 1 3.44531,2.33789 73.414566,73.414566 45 0 1 5.78516,4.93945 73.414566,73.414566 0 0 1 2.31445,2.0625 73.414566,73.414566 45 0 1 6.75977,7.91602 73.414566,73.414566 0 0 1 2.08008,3.1875 73.414566,73.414566 45 0 1 3.29687,5.37695 73.414566,73.414566 0 0 1 1.96094,3.88086 73.414566,73.414566 45 0 1 2.53125,6.11523 73.414566,73.414566 0 0 1 1.36914,3.93946 73.414566,73.414566 45 0 1 1.68555,7.01757 73.414566,73.414566 0 0 1 0.70508,3.46289 73.414566,73.414566 45 0 1 0.84179,10.69727 73.414566,73.414566 0 0 1 -0.82226,10.43555 73.414566,73.414566 45 0 1 -1.10157,5.29492 73.414566,73.414566 0 0 1 -1.15429,4.80469 73.414566,73.414566 45 0 1 -2.1543,6.10937 73.414566,73.414566 0 0 1 -1.42773,3.44336 73.414566,73.414566 45 0 1 -3.08594,6.02344 73.414566,73.414566 0 0 1 -17.67774,20.85742 73.414566,73.414566 0 0 1 -1.06054,0.90625 73.414566,73.414566 0 0 1 -6.04883,4.13477 73.414566,73.414566 0 0 1 -2.91211,1.78515 73.414566,73.414566 0 0 1 -5.81836,2.9336 73.414566,73.414566 0 0 1 -4.05078,1.67773 73.414566,73.414566 0 0 1 -5.52539,1.92187 73.414566,73.414566 0 0 1 -5.38281,1.29102 73.414566,73.414566 0 0 1 -4.75,0.97266 73.414566,73.414566 0 0 1 -10.44141,0.82226 73.414566,73.414566 0 0 1 -10.44141,-0.82226 73.414566,73.414566 0 0 1 -4.75,-0.97266 73.414566,73.414566 0 0 1 -5.38281,-1.29102 73.414566,73.414566 0 0 1 -5.52539,-1.92187 73.414566,73.414566 0 0 1 -4.05078,-1.67773 73.414566,73.414566 0 0 1 -5.81836,-2.9336 73.414566,73.414566 0 0 1 -2.91211,-1.78515 73.414566,73.414566 0 0 1 -6.04883,-4.13477 73.414566,73.414566 0 0 1 -1.06054,-0.90625 73.414566,73.414566 0 0 1 -17.67774,-20.85937 73.414566,73.414566 45 0 1 -3.08594,-6.02149 73.414566,73.414566 0 0 1 -1.42773,-3.44336 73.414566,73.414566 45 0 1 -2.1543,-6.10937 73.414566,73.414566 0 0 1 -1.15429,-4.80469 73.414566,73.414566 45 0 1 -1.10157,-5.29492 A 73.414566,73.414566 0 0 1 246.58594,320 a 73.414566,73.414566 45 0 1 0.82226,-10.43555 73.414566,73.414566 0 0 1 1.10157,-5.29492 73.414566,73.414566 45 0 1 1.15429,-4.80469 73.414566,73.414566 0 0 1 2.1543,-6.10937 73.414566,73.414566 45 0 1 1.42773,-3.44336 73.414566,73.414566 0 0 1 3.08594,-6.02149 73.414566,73.414566 0 0 1 17.67774,-20.85937 73.414566,73.414566 45 0 1 1.06054,-0.90625 73.414566,73.414566 0 0 1 6.04883,-4.13477 73.414566,73.414566 45 0 1 2.91211,-1.78515 73.414566,73.414566 0 0 1 5.81836,-2.9336 73.414566,73.414566 45 0 1 4.05078,-1.67773 73.414566,73.414566 0 0 1 5.52539,-1.92187 73.414566,73.414566 45 0 1 5.38281,-1.29102 73.414566,73.414566 0 0 1 4.75,-0.97266 A 73.414566,73.414566 45 0 1 320,246.58594 Z" />
    <path
       id="path7"
       style="opacity:1;fill:#309c76;fill-opacity:1;stroke:none;stroke-width:2.01787;stroke-linecap:round;stroke-opacity:0.274648"
       d="M 320,260.74301 A 59.256609,59.256609 0 0 0 260.74301,320 59.256609,59.256609 0 0 0 320,379.25699 59.256609,59.256609 0 0 0 379.25699,320 59.256609,59.256609 0 0 0 320,260.74301 Z m 0,29.62889 A 29.628305,29.628305 0 0 1 349.6281,320 29.628305,29.628305 0 0 1 320,349.6281 29.628305,29.628305 0 0 1 290.3719,320 29.628305,29.628305 0 0 1 320,290.3719 Z" />
  </g>
</svg>
